<?xml version="1.0" encoding="UTF-8" standalone="no"?>
<!-- Created with Inkscape (http://www.inkscape.org/) -->

<svg
   xmlns:dc="http://purl.org/dc/elements/1.1/"
   xmlns:cc="http://creativecommons.org/ns#"
   xmlns:rdf="http://www.w3.org/1999/02/22-rdf-syntax-ns#"
   xmlns:svg="http://www.w3.org/2000/svg"
   xmlns="http://www.w3.org/2000/svg"
   xmlns:xlink="http://www.w3.org/1999/xlink"
   xmlns:sodipodi="http://sodipodi.sourceforge.net/DTD/sodipodi-0.dtd"
   xmlns:inkscape="http://www.inkscape.org/namespaces/inkscape"
   width="391.04001"
   height="30"
   id="svg2"
   version="1.1"
   inkscape:version="0.48.2 r9819"
   sodipodi:docname="sticker-path.svg"
   inkscape:export-filename="/home/user/tosdr-shirt3-path.png"
   inkscape:export-xdpi="90"
   inkscape:export-ydpi="90">
  <defs
     id="defs4">
    <radialGradient
       inkscape:collect="always"
       xlink:href="#linearGradient4394"
       id="radialGradient4400"
       cx="198.10001"
       cy="329.22119"
       fx="198.10001"
       fy="329.22119"
       r="198.10001"
       gradientTransform="matrix(1,0,0,0.37859666,0,204.57915)"
       gradientUnits="userSpaceOnUse"
       spreadMethod="pad" />
    <linearGradient
       id="linearGradient4394">
      <stop
         id="stop4402"
         offset="0"
         style="stop-color:#c8c8c8;stop-opacity:0;" />
      <stop
         style="stop-color:#c8c8c8;stop-opacity:0;"
         offset="0.36680028"
         id="stop4404" />
      <stop
         id="stop4406"
         offset="0.93367344"
         style="stop-color:#c8c8c8;stop-opacity:0.19607843;" />
      <stop
         style="stop-color:#c8c8c8;stop-opacity:0.19607843;"
         offset="1"
         id="stop4398" />
    </linearGradient>
  </defs>
  <sodipodi:namedview
     id="base"
     pagecolor="#ffffff"
     bordercolor="#666666"
     borderopacity="1.0"
     inkscape:pageopacity="0.0"
     inkscape:pageshadow="2"
     inkscape:zoom="1.4142136"
     inkscape:cx="104.63849"
     inkscape:cy="81.731528"
     inkscape:document-units="px"
     inkscape:current-layer="layer1"
     showgrid="false"
     inkscape:window-width="1280"
     inkscape:window-height="665"
     inkscape:window-x="0"
     inkscape:window-y="0"
     inkscape:window-maximized="1"
     showguides="true"
     inkscape:guide-bbox="true"
     fit-margin-top="50"
     fit-margin-left="50"
     fit-margin-right="50"
     fit-margin-bottom="50" />
  <metadata
     id="metadata7">
    <rdf:RDF>
      <cc:Work
         rdf:about="">
        <dc:format>image/svg+xml</dc:format>
        <dc:type
           rdf:resource="http://purl.org/dc/dcmitype/StillImage" />
        <dc:title></dc:title>
      </cc:Work>
    </rdf:RDF>
  </metadata>
  <g
     inkscape:label="Layer 1"
     inkscape:groupmode="layer"
     id="layer1"
     transform="translate(-233.54988,8.630335)">
    <g
       id="g3265"
       transform="matrix(0.51050697,0,0,0.58646805,55.647059,-79.639585)">
      <g
         id="g3259">
        <path
           inkscape:connector-curvature="0"
           id="rect3018"
           d="m 358.34601,127.17126 27.35873,0 c 1.89459,0 3.41984,1.52525 3.41984,3.41984 0,1.89459 -1.52525,3.41984 -3.41984,3.41984 l -27.35873,0 c -1.89459,0 -3.41984,-1.52525 -3.41984,-3.41984 0,-1.89459 1.52525,-3.41984 3.41984,-3.41984 z"
           style="fill:#46a546;fill-opacity:1" />
        <path
           inkscape:connector-curvature="0"
           id="rect3020"
           d="m 358.34601,136.42809 23.25492,0 c 1.89459,0 3.41984,1.52524 3.41984,3.41984 0,1.89459 -1.52525,3.41984 -3.41984,3.41984 l -23.25492,0 c -1.89459,0 -3.41984,-1.52525 -3.41984,-3.41984 0,-1.8946 1.52525,-3.41984 3.41984,-3.41984 z"
           style="fill:#f89406;fill-opacity:1" />
        <path
           inkscape:connector-curvature="0"
           id="rect3022"
           d="m 358.34601,145.41063 25.99079,0 c 1.89459,0 3.41984,1.52525 3.41984,3.41984 0,1.8946 -1.52525,3.41984 -3.41984,3.41984 l -25.99079,0 c -1.89459,0 -3.41984,-1.52524 -3.41984,-3.41984 0,-1.89459 1.52525,-3.41984 3.41984,-3.41984 z"
           style="fill:#c43c35;fill-opacity:1" />
        <path
           inkscape:connector-curvature="0"
           id="rect3024"
           d="m 358.34601,154.52999 13.67936,0 c 1.89459,0 3.41984,1.52525 3.41984,3.41984 0,1.89459 -1.52525,3.41984 -3.41984,3.41984 l -13.67936,0 c -1.89459,0 -3.41984,-1.52525 -3.41984,-3.41984 0,-1.89459 1.52525,-3.41984 3.41984,-3.41984 z"
           style="fill:#999999;fill-opacity:1" />
      </g>
    </g>
    <g
       style="font-size:16px;font-style:normal;font-variant:normal;font-weight:600;font-stretch:normal;text-align:start;line-height:125%;letter-spacing:0px;word-spacing:0px;writing-mode:lr-tb;text-anchor:start;fill:#000000;fill-opacity:1;stroke:none;font-family:FreeSans;-inkscape-font-specification:FreeSans Semi-Bold"
       id="text3035"
       transform="matrix(1.0942916,0,0,1.1182785,-25.270478,-105.36125)">
      <path
         d="m 264.00752,94.22542 3.408,0 0,-2 -9.344,0 0,2 3.536,0 0,9.664 2.4,0 0,-9.664"
         style="fill:#000000;font-family:FreeSans;-inkscape-font-specification:FreeSans Semi-Bold"
         id="path3046"
         inkscape:connector-curvature="0" />
      <path
         d="m 272.80002,95.10542 c -2.64,0 -4.256,1.744002 -4.256,4.576 0,2.848 1.616,4.576 4.272,4.576 2.624,0 4.272,-1.744 4.272,-4.512 0,-2.927998 -1.584,-4.64 -4.288,-4.64 m 0.016,1.808 c 1.232,0 2.032,1.104001 2.032,2.8 0,1.616 -0.832,2.736 -2.032,2.736 -1.216,0 -2.032,-1.12 -2.032,-2.768 0,-1.647999 0.816,-2.768 2.032,-2.768"
         style="fill:#000000;font-family:FreeSans;-inkscape-font-specification:FreeSans Semi-Bold"
         id="path3048"
         inkscape:connector-curvature="0" />
      <path
         d="m 287.55652,95.77742 c 0,-3.183997 -2.768,-3.744 -4.576,-3.744 -2.79999,0 -4.416,1.312002 -4.416,3.584 0,1.807998 0.912,2.688 3.28,3.136 l 1.632,0.32 c 1.6,0.303999 2.192,0.752 2.192,1.696 0,0.976 -0.896,1.568 -2.352,1.568 -1.632,0 -2.544,-0.688 -2.624,-1.936 l -2.336,0 c 0.144,2.496 1.85601,3.856 4.832,3.856 3.008,0 4.784,-1.408 4.784,-3.776 0,-1.839999 -0.928,-2.800001 -3.088,-3.216 l -1.824,-0.352 c -1.712,-0.336 -2.208,-0.672001 -2.208,-1.52 0,-0.88 0.784,-1.44 2.016,-1.44 1.52,0 2.368,0.640001 2.448,1.824 l 2.24,0"
         style="fill:#000000;font-family:FreeSans;-inkscape-font-specification:FreeSans Semi-Bold"
         id="path3050"
         inkscape:connector-curvature="0" />
      <path
         d="m 289.42277,101.55342 0,2.336 1.376,0 c 0,1.12 -0.416,1.696 -1.376,1.888 l 0,0.896 c 2.176,-0.272 2.4,-1.68 2.4,-2.928 l 0,-2.192 -2.4,0 m 2.4,-5.984 -2.4,0 0,2.336 2.4,0 0,-2.336"
         style="fill:#000000;font-family:FreeSans;-inkscape-font-specification:FreeSans Semi-Bold"
         id="path3052"
         inkscape:connector-curvature="0" />
      <path
         d="m 293.90277,103.88942 4.56,0 c 1.776,0 2.896,-0.416 3.68,-1.36 0.928,-1.088 1.424,-2.672002 1.424,-4.48 0,-1.791999 -0.496,-3.376002 -1.424,-4.48 -0.784,-0.944 -1.888,-1.344 -3.68,-1.344 l -4.56,0 0,11.664 m 2.4,-2 0,-7.664 2.16,0 c 1.808,0 2.704,1.264002 2.704,3.84 0,2.56 -0.896,3.824 -2.704,3.824 l -2.16,0"
         style="fill:#000000;font-family:FreeSans;-inkscape-font-specification:FreeSans Semi-Bold"
         id="path3054"
         inkscape:connector-curvature="0" />
      <path
         d="m 312.10452,101.88942 c 0,1.088 0.064,1.44 0.368,2 l 2.576,0 0,-0.432 c -0.368,-0.208 -0.512,-0.448 -0.512,-0.96 -0.064,-3.439997 -0.128,-3.600001 -1.616,-4.24 1.312,-0.512 1.968,-1.456002 1.968,-2.88 0,-1.295999 -0.624,-3.152 -3.136,-3.152 l -6.256,0 0,11.664 2.4,0 0,-4.624 2.752,0 c 1.04,0 1.488,0.416001 1.488,1.392 0,0.496 -0.032,0.368 -0.032,1.232 m 0.384,-6.176 c 0,1.359998 -0.704,1.552 -1.696,1.552 l -2.896,0 0,-3.04 2.896,0 c 1.008,0 1.696,0.192001 1.696,1.488"
         style="fill:#000000;font-family:FreeSans;-inkscape-font-specification:FreeSans Semi-Bold"
         id="path3056"
         inkscape:connector-curvature="0" />
      <path
         d="m 318.97902,101.55342 -2.4,0 0,2.336 2.4,0 0,-2.336 m 0,-5.984 -2.4,0 0,2.336 2.4,0 0,-2.336"
         style="fill:#000000;font-family:FreeSans;-inkscape-font-specification:FreeSans Semi-Bold"
         id="path3058"
         inkscape:connector-curvature="0" />
      <path
         d="m 327.89652,92.22542 -2.4,0 0,11.664 2.4,0 0,-11.664"
         style="fill:#000000;font-family:FreeSans;-inkscape-font-specification:FreeSans Semi-Bold"
         id="path3060"
         inkscape:connector-curvature="0" />
      <path
         d="m 337.89477,104.25742 c 1.072,0 1.824,-0.4 2.384,-1.248 l 0,0.88 2.24,0 0,-11.664 -2.24,0 0,4.144 c -0.56,-0.864 -1.312,-1.264 -2.384,-1.264 -2.064,0 -3.632,1.984002 -3.632,4.592 0,2.528 1.456,4.56 3.632,4.56 m 0.496,-7.28 c 1.136,0 1.888,1.104001 1.888,2.752 0,1.568 -0.768,2.656 -1.888,2.656 -1.12,0 -1.888,-1.104 -1.888,-2.688 0,-1.599999 0.768,-2.72 1.888,-2.72"
         style="fill:#000000;font-family:FreeSans;-inkscape-font-specification:FreeSans Semi-Bold"
         id="path3062"
         inkscape:connector-curvature="0" />
      <path
         d="m 346.92027,95.24942 -2.24,0 0,8.64 2.24,0 0,-8.64 m 0,-3.024 -2.24,0 0,2 2.24,0 0,-2"
         style="fill:#000000;font-family:FreeSans;-inkscape-font-specification:FreeSans Semi-Bold"
         id="path3064"
         inkscape:connector-curvature="0" />
      <path
         d="m 352.30102,104.25742 c 1.072,0 1.824,-0.4 2.384,-1.248 l 0,0.88 2.24,0 0,-11.664 -2.24,0 0,4.144 c -0.56,-0.864 -1.312,-1.264 -2.384,-1.264 -2.064,0 -3.632,1.984002 -3.632,4.592 0,2.528 1.456,4.56 3.632,4.56 m 0.496,-7.28 c 1.136,0 1.888,1.104001 1.888,2.752 0,1.568 -0.768,2.656 -1.888,2.656 -1.12,0 -1.888,-1.104 -1.888,-2.688 0,-1.599999 0.768,-2.72 1.888,-2.72"
         style="fill:#000000;font-family:FreeSans;-inkscape-font-specification:FreeSans Semi-Bold"
         id="path3066"
         inkscape:connector-curvature="0" />
      <path
         d="m 359.00652,95.24942 0,8.64 2.24,0 0,-5.184 c 0,-1.023999 0.72,-1.696 1.808,-1.696 0.96,0 1.44,0.528001 1.44,1.552 l 0,5.328 2.24,0 0,-5.792 c 0,-1.903999 -1.056,-2.992 -2.896,-2.992 -1.168,0 -1.952,0.432001 -2.592,1.392 l 0,-1.248 -2.24,0"
         style="fill:#000000;font-family:FreeSans;-inkscape-font-specification:FreeSans Semi-Bold"
         id="path3068"
         inkscape:connector-curvature="0" />
      <path
         d="m 370.88302,92.22542 -2.208,0 0,2.08 0.64,2.064 0.896,0 0.672,-2.064 0,-2.08"
         style="fill:#000000;font-family:FreeSans;-inkscape-font-specification:FreeSans Semi-Bold"
         id="path3070"
         inkscape:connector-curvature="0" />
      <path
         d="m 376.70702,95.42542 -1.248,0 0,-2.32 -2.24,0 0,2.32 -1.104,0 0,1.488 1.104,0 0,5.312 c 0,1.36 0.72,2.032 2.192,2.032 0.496,0 0.896,-0.048 1.296,-0.176 l 0,-1.568 c -0.224,0.032 -0.352,0.048 -0.512,0.048 -0.592,0 -0.736,-0.176 -0.736,-0.944 l 0,-4.704 1.248,0 0,-1.488"
         style="fill:#000000;font-family:FreeSans;-inkscape-font-specification:FreeSans Semi-Bold"
         id="path3072"
         inkscape:connector-curvature="0" />
      <path
         d="m 382.66277,95.24942 0,8.64 2.24,0 0,-4.592 c 0,-1.311999 0.656,-1.968 1.968,-1.968 0.24,0 0.4,0.016 0.704,0.064 l 0,-2.272 c -0.128,-0.016 -0.208,-0.016 -0.272,-0.016 -1.024,0 -1.92,0.672001 -2.4,1.84 l 0,-1.696 -2.24,0"
         style="fill:#000000;font-family:FreeSans;-inkscape-font-specification:FreeSans Semi-Bold"
         id="path3074"
         inkscape:connector-curvature="0" />
      <path
         d="m 392.54402,95.10542 c -2.48,0 -4,1.792002 -4,4.688 0,2.768 1.504,4.464 3.952,4.464 1.936,0 3.504,-1.104 4,-2.8 l -2.208,0 c -0.272,0.688 -0.896,1.088 -1.712,1.088 -1.504,0 -1.744,-1.104 -1.792,-2.272 l 5.792,0 c 0.016,-0.192 0.016,-0.272 0.016,-0.384 0,-3.823997 -2.32,-4.784 -4.048,-4.784 m 1.712,3.68 -3.44,0 c 0.144,-1.311999 0.704,-1.968 1.696,-1.968 1.04,0 1.648,0.704001 1.744,1.968"
         style="fill:#000000;font-family:FreeSans;-inkscape-font-specification:FreeSans Semi-Bold"
         id="path3076"
         inkscape:connector-curvature="0" />
      <path
         d="m 400.51177,104.25742 c 0.96,0 1.84,-0.416 2.624,-1.232 0,0.448 0.048,0.608 0.256,0.864 l 2.432,0 0,-0.272 c -0.4,-0.368 -0.512,-0.608 -0.512,-1.056 l 0,-4.8 c 0,-1.759999 -1.2,-2.656 -3.536,-2.656 -2.336,0 -3.552,0.992002 -3.696,2.992 l 2.16,0 c 0.112,-0.896 0.48,-1.184 1.584,-1.184 0.864,0 1.296,0.288 1.296,0.864 0,0.847999 -1.056,0.896 -1.792,1.008 l -0.896,0.16 c -1.712,0.287999 -2.544,1.168 -2.544,2.72 0,1.552 1.056,2.592 2.624,2.592 m 2.608,-3.84 c 0,1.296 -0.64,2.032 -1.776,2.032 -0.752,0 -1.216,-0.4 -1.216,-1.04 0,-0.672 0.352,-0.992 1.28,-1.184 l 0.768,-0.144 c 0.592,-0.112 0.688,-0.144001 0.944,-0.272 l 0,0.608"
         style="fill:#000000;font-family:FreeSans;-inkscape-font-specification:FreeSans Semi-Bold"
         id="path3078"
         inkscape:connector-curvature="0" />
      <path
         d="m 410.58227,104.25742 c 1.072,0 1.824,-0.4 2.384,-1.248 l 0,0.88 2.24,0 0,-11.664 -2.24,0 0,4.144 c -0.56,-0.864 -1.312,-1.264 -2.384,-1.264 -2.064,0 -3.632,1.984002 -3.632,4.592 0,2.528 1.456,4.56 3.632,4.56 m 0.496,-7.28 c 1.136,0 1.888,1.104001 1.888,2.752 0,1.568 -0.768,2.656 -1.888,2.656 -1.12,0 -1.888,-1.104 -1.888,-2.688 0,-1.599999 0.768,-2.72 1.888,-2.72"
         style="fill:#000000;font-family:FreeSans;-inkscape-font-specification:FreeSans Semi-Bold"
         id="path3080"
         inkscape:connector-curvature="0" />
      <path
         d="m 424.06127,104.30542 c 0,0.816 -0.608,1.44 -1.392,1.44 -0.176,0 -0.304,-0.016 -0.592,-0.096 l 0,1.68 c 0.336,0.048 0.528,0.064 0.8,0.064 2.448,0 2.672,-1.328 2.88,-1.92 l 3.552,-10.224 -2.304,0 -1.792,6.288 -1.904,-6.288 -2.464,0 3.216,8.992 0,0.064"
         style="fill:#000000;font-family:FreeSans;-inkscape-font-specification:FreeSans Semi-Bold"
         id="path3082"
         inkscape:connector-curvature="0" />
      <path
         d="m 434.36252,95.10542 c -2.64,0 -4.256,1.744002 -4.256,4.576 0,2.848 1.616,4.576 4.272,4.576 2.624,0 4.272,-1.744 4.272,-4.512 0,-2.927998 -1.584,-4.64 -4.288,-4.64 m 0.016,1.808 c 1.232,0 2.032,1.104001 2.032,2.8 0,1.616 -0.832,2.736 -2.032,2.736 -1.216,0 -2.032,-1.12 -2.032,-2.768 0,-1.647999 0.816,-2.768 2.032,-2.768"
         style="fill:#000000;font-family:FreeSans;-inkscape-font-specification:FreeSans Semi-Bold"
         id="path3084"
         inkscape:connector-curvature="0" />
      <path
         d="m 448.04702,103.88942 0,-8.64 -2.24,0 0,5.408 c 0,1.024 -0.72,1.696 -1.808,1.696 -0.96,0 -1.44,-0.512 -1.44,-1.552 l 0,-5.552 -2.24,0 0,6.016 c 0,1.904 1.056,2.992 2.896,2.992 1.168,0 1.952,-0.432 2.592,-1.392 l 0,1.024 2.24,0"
         style="fill:#000000;font-family:FreeSans;-inkscape-font-specification:FreeSans Semi-Bold"
         id="path3086"
         inkscape:connector-curvature="0" />
      <path
         d="m 450.13152,95.24942 0,8.64 2.24,0 0,-4.592 c 0,-1.311999 0.656,-1.968 1.968,-1.968 0.24,0 0.4,0.016 0.704,0.064 l 0,-2.272 c -0.128,-0.016 -0.208,-0.016 -0.272,-0.016 -1.024,0 -1.92,0.672001 -2.4,1.84 l 0,-1.696 -2.24,0"
         style="fill:#000000;font-family:FreeSans;-inkscape-font-specification:FreeSans Semi-Bold"
         id="path3088"
         inkscape:connector-curvature="0" />
      <path
         d="m 466.22627,94.22542 3.408,0 0,-2 -9.344,0 0,2 3.536,0 0,9.664 2.4,0 0,-9.664"
         style="fill:#000000;font-family:FreeSans;-inkscape-font-specification:FreeSans Semi-Bold"
         id="path3090"
         inkscape:connector-curvature="0" />
      <path
         d="m 474.76277,95.10542 c -2.48,0 -4,1.792002 -4,4.688 0,2.768 1.504,4.464 3.952,4.464 1.936,0 3.504,-1.104 4,-2.8 l -2.208,0 c -0.272,0.688 -0.896,1.088 -1.712,1.088 -1.504,0 -1.744,-1.104 -1.792,-2.272 l 5.792,0 c 0.016,-0.192 0.016,-0.272 0.016,-0.384 0,-3.823997 -2.32,-4.784 -4.048,-4.784 m 1.712,3.68 -3.44,0 c 0.144,-1.311999 0.704,-1.968 1.696,-1.968 1.04,0 1.648,0.704001 1.744,1.968"
         style="fill:#000000;font-family:FreeSans;-inkscape-font-specification:FreeSans Semi-Bold"
         id="path3092"
         inkscape:connector-curvature="0" />
      <path
         d="m 480.50652,95.24942 0,8.64 2.24,0 0,-4.592 c 0,-1.311999 0.656,-1.968 1.968,-1.968 0.24,0 0.4,0.016 0.704,0.064 l 0,-2.272 c -0.128,-0.016 -0.208,-0.016 -0.272,-0.016 -1.024,0 -1.92,0.672001 -2.4,1.84 l 0,-1.696 -2.24,0"
         style="fill:#000000;font-family:FreeSans;-inkscape-font-specification:FreeSans Semi-Bold"
         id="path3094"
         inkscape:connector-curvature="0" />
      <path
         d="m 486.78777,95.24942 0,8.64 2.24,0 0,-5.184 c 0,-1.055999 0.576,-1.696 1.536,-1.696 0.752,0 1.216,0.432 1.216,1.12 l 0,5.76 2.24,0 0,-5.184 c 0,-1.055999 0.576,-1.696 1.536,-1.696 0.752,0 1.216,0.432 1.216,1.12 l 0,5.76 2.24,0 0,-6.112 c 0,-1.679999 -1.024,-2.672 -2.752,-2.672 -1.088,0 -1.856,0.384 -2.528,1.28 -0.416,-0.816 -1.28,-1.28 -2.352,-1.28 -0.992,0 -1.632,0.336 -2.368,1.216 l 0,-1.072 -2.224,0"
         style="fill:#000000;font-family:FreeSans;-inkscape-font-specification:FreeSans Semi-Bold"
         id="path3096"
         inkscape:connector-curvature="0" />
      <path
         d="m 502.73227,101.37742 -2.192,0 c 0.064,1.888 1.456,2.88 4.08,2.88 3.024,0 3.776,-1.728 3.776,-2.928 0,-1.12 -0.56,-1.840001 -1.696,-2.176 l -2.832,-0.816 c -0.624,-0.192 -0.784,-0.320001 -0.784,-0.672 0,-0.48 0.512,-0.8 1.296,-0.8 1.072,0 1.6,0.384 1.616,1.168 l 2.16,0 c -0.032,-1.823999 -1.44,-2.928 -3.76,-2.928 -2.192,0 -3.552,1.104001 -3.552,2.88 0,1.695998 1.392,1.968 1.888,2.128 l 2.672,0.832 c 0.56,0.176 0.752,0.352 0.752,0.704 0,0.528 -0.624,0.848 -1.664,0.848 -1.408,0 -1.632,-0.528 -1.76,-1.12"
         style="fill:#000000;font-family:FreeSans;-inkscape-font-specification:FreeSans Semi-Bold"
         id="path3098"
         inkscape:connector-curvature="0" />
      <path
         d="m 518.30002,95.10542 c -2.64,0 -4.256,1.744002 -4.256,4.576 0,2.848 1.616,4.576 4.272,4.576 2.624,0 4.272,-1.744 4.272,-4.512 0,-2.927998 -1.584,-4.64 -4.288,-4.64 m 0.016,1.808 c 1.232,0 2.032,1.104001 2.032,2.8 0,1.616 -0.832,2.736 -2.032,2.736 -1.216,0 -2.032,-1.12 -2.032,-2.768 0,-1.647999 0.816,-2.768 2.032,-2.768"
         style="fill:#000000;font-family:FreeSans;-inkscape-font-specification:FreeSans Semi-Bold"
         id="path3100"
         inkscape:connector-curvature="0" />
      <path
         d="m 528.22452,95.42542 -1.328,0 0,-0.848 c 0,-0.448 0.192,-0.672 0.608,-0.672 0.192,0 0.448,0.016 0.64,0.048 l 0,-1.68 c -0.416,-0.032 -0.976,-0.048 -1.28,-0.048 -1.488,0 -2.208,0.704001 -2.208,2.16 l 0,1.04 -1.216,0 0,1.488 1.216,0 0,6.976 2.24,0 0,-6.976 1.328,0 0,-1.488"
         style="fill:#000000;font-family:FreeSans;-inkscape-font-specification:FreeSans Semi-Bold"
         id="path3102"
         inkscape:connector-curvature="0" />
      <path
         d="m 542.99402,95.77742 c 0,-3.183997 -2.768,-3.744 -4.576,-3.744 -2.79999,0 -4.416,1.312002 -4.416,3.584 0,1.807998 0.912,2.688 3.28,3.136 l 1.632,0.32 c 1.6,0.303999 2.192,0.752 2.192,1.696 0,0.976 -0.896,1.568 -2.352,1.568 -1.632,0 -2.544,-0.688 -2.624,-1.936 l -2.336,0 c 0.144,2.496 1.85601,3.856 4.832,3.856 3.008,0 4.784,-1.408 4.784,-3.776 0,-1.839999 -0.928,-2.800001 -3.088,-3.216 l -1.824,-0.352 c -1.712,-0.336 -2.208,-0.672001 -2.208,-1.52 0,-0.88 0.784,-1.44 2.016,-1.44 1.52,0 2.368,0.640001 2.448,1.824 l 2.24,0"
         style="fill:#000000;font-family:FreeSans;-inkscape-font-specification:FreeSans Semi-Bold"
         id="path3104"
         inkscape:connector-curvature="0" />
      <path
         d="m 548.70027,95.10542 c -2.48,0 -4,1.792002 -4,4.688 0,2.768 1.504,4.464 3.952,4.464 1.936,0 3.504,-1.104 4,-2.8 l -2.208,0 c -0.272,0.688 -0.896,1.088 -1.712,1.088 -1.504,0 -1.744,-1.104 -1.792,-2.272 l 5.792,0 c 0.016,-0.192 0.016,-0.272 0.016,-0.384 0,-3.823997 -2.32,-4.784 -4.048,-4.784 m 1.712,3.68 -3.44,0 c 0.144,-1.311999 0.704,-1.968 1.696,-1.968 1.04,0 1.648,0.704001 1.744,1.968"
         style="fill:#000000;font-family:FreeSans;-inkscape-font-specification:FreeSans Semi-Bold"
         id="path3106"
         inkscape:connector-curvature="0" />
      <path
         d="m 554.44402,95.24942 0,8.64 2.24,0 0,-4.592 c 0,-1.311999 0.656,-1.968 1.968,-1.968 0.24,0 0.4,0.016 0.704,0.064 l 0,-2.272 c -0.128,-0.016 -0.208,-0.016 -0.272,-0.016 -1.024,0 -1.92,0.672001 -2.4,1.84 l 0,-1.696 -2.24,0"
         style="fill:#000000;font-family:FreeSans;-inkscape-font-specification:FreeSans Semi-Bold"
         id="path3108"
         inkscape:connector-curvature="0" />
      <path
         d="m 565.22127,103.88942 2.976,-8.64 -2.368,0 -1.744,6.32 -1.872,-6.32 -2.368,0 3.024,8.64 2.352,0"
         style="fill:#000000;font-family:FreeSans;-inkscape-font-specification:FreeSans Semi-Bold"
         id="path3110"
         inkscape:connector-curvature="0" />
      <path
         d="m 571.73277,95.24942 -2.24,0 0,8.64 2.24,0 0,-8.64 m 0,-3.024 -2.24,0 0,2 2.24,0 0,-2"
         style="fill:#000000;font-family:FreeSans;-inkscape-font-specification:FreeSans Semi-Bold"
         id="path3112"
         inkscape:connector-curvature="0" />
      <path
         d="m 577.54552,96.91342 c 0.912,0 1.344,0.432001 1.6,1.568 l 2.144,0 c -0.16,-2.111998 -1.568,-3.376 -3.728,-3.376 -2.576,0 -4.08,1.696002 -4.08,4.64 0,2.848 1.488,4.512 4.048,4.512 2.096,0 3.552,-1.296 3.76,-3.36 l -2.144,0 c -0.288,1.12 -0.736,1.552 -1.6,1.552 -1.136,0 -1.824,-1.024 -1.824,-2.704 0,-1.199999 0.272,-2.832 1.824,-2.832"
         style="fill:#000000;font-family:FreeSans;-inkscape-font-specification:FreeSans Semi-Bold"
         id="path3114"
         inkscape:connector-curvature="0" />
      <path
         d="m 586.41902,95.10542 c -2.48,0 -4,1.792002 -4,4.688 0,2.768 1.504,4.464 3.952,4.464 1.936,0 3.504,-1.104 4,-2.8 l -2.208,0 c -0.272,0.688 -0.896,1.088 -1.712,1.088 -1.504,0 -1.744,-1.104 -1.792,-2.272 l 5.792,0 c 0.016,-0.192 0.016,-0.272 0.016,-0.384 0,-3.823997 -2.32,-4.784 -4.048,-4.784 m 1.712,3.68 -3.44,0 c 0.144,-1.311999 0.704,-1.968 1.696,-1.968 1.04,0 1.648,0.704001 1.744,1.968"
         style="fill:#000000;font-family:FreeSans;-inkscape-font-specification:FreeSans Semi-Bold"
         id="path3116"
         inkscape:connector-curvature="0" />
    </g>
  </g>
</svg>
